# xmcd CD database file
#
# Track frame offsets:
#	150
#	12325
#	27176
#	41763
#	52696
#	62853
#	73490
#	86931
#	99334
#	109533
#	120811
#	135054
#	145453
#	155786
#	170968
#	182617
#	193783
#	206521
#	219977
#
# Disc length: 3156 seconds
#
# Revision: 2
# Processed by: cddbd v1.5.2PL0 Copyright (c) Steve Scherf et al.
# Submitted via: jetAudio 7
#
DISCID=0f0c5213
DTITLE=Jerry Reed - Georgia Sunshine and Oh What A Woman!
DYEAR=1972
DGENRE=Country
TTITLE0=Georgia Sunshine
TTITLE1=Good Friends And Neighbors
TTITLE2=Mule Skinner Blues (Blue Yodel No. 8)
TTITLE3=That's All Part Of Losing
TTITLE4=Eight More Miles To Louisville
TTITLE5=Amos Moses
TTITLE6=Dream Sweet Dreams About Me
TTITLE7=The Preacher And The Bear
TTITLE8=Ugly Woman
TTITLE9=Talk About The Good Times
TTITLE10=Oh What A Woman
TTITLE11=Roving Gambler
TTITLE12=Woman Shy
TTITLE13=Wayfaring Stranger
TTITLE14=Take A Walk
TTITLE15=Guitar Man
TTITLE16=Sittin' On Top Of The World
TTITLE17=I Feel For You
TTITLE18=Today Is Mine
EXTD=YEAR: 1972
EXTT0=
EXTT1=
EXTT2=
EXTT3=
EXTT4=
EXTT5=
EXTT6=
EXTT7=
EXTT8=
EXTT9=
EXTT10=
EXTT11=
EXTT12=
EXTT13=
EXTT14=
EXTT15=
EXTT16=
EXTT17=
EXTT18=
PLAYORDER=
